<?xml version="1.0" standalone="no"?><!DOCTYPE svg PUBLIC "-//W3C//DTD SVG 1.1//EN" "http://www.w3.org/Graphics/SVG/1.1/DTD/svg11.dtd"><svg t="1774366690026" class="icon" viewBox="0 0 1024 1024" version="1.1" xmlns="http://www.w3.org/2000/svg" p-id="44152" xmlns:xlink="http://www.w3.org/1999/xlink" width="200" height="200"><path d="M231.6288 197.0176V121.787733a21.9136 21.9136 0 1 1 43.895467 0v112.0256a19.797333 19.797333 0 0 1-19.182934 23.415467 22.186667 22.186667 0 0 1-5.461333 0H120.0128a19.6608 19.6608 0 1 1 0-39.389867h76.731733L62.941867 83.968A19.6608 19.6608 0 0 1 90.794667 56.1152l140.834133 140.834133z" fill="#999999" p-id="44153"></path><path d="M921.6 955.733333H238.933333V397.312L410.077867 204.8H921.6z" fill="#FCFAE6" p-id="44154"></path><path d="M304.5376 482.850133a23.893333 23.893333 0 0 1 34.747733-32.768c31.607467 33.314133 74.615467 44.032 132.437334 31.402667 40.7552-8.8064 67.3792-24.849067 107.861333-59.733333l14.677333-12.6976c28.8768-24.917333 47.991467-38.434133 72.840534-49.083734 53.725867-22.869333 106.222933-19.6608 155.101866 9.693867a23.893333 23.893333 0 1 1-24.576 40.96c-35.6352-21.367467-72.021333-23.620267-111.752533-6.690133-19.2512 8.192-34.952533 19.387733-60.416 41.301333l-14.677333 12.6976c-46.011733 39.594667-78.779733 59.392-128.887467 70.314667-73.3184 15.906133-133.461333 0.955733-177.3568-45.397334z m0 170.666667a23.893333 23.893333 0 0 1 34.747733-32.768c31.607467 33.314133 74.615467 44.032 132.437334 31.402667 40.7552-8.8064 67.3792-24.849067 107.861333-59.733334l14.677333-12.6976c28.8768-24.917333 47.991467-38.434133 72.840534-49.083733 53.725867-22.869333 106.222933-19.6608 155.101866 9.693867a23.893333 23.893333 0 1 1-24.576 40.96c-35.6352-21.367467-72.021333-23.620267-111.752533-6.690134-19.2512 8.192-34.952533 19.387733-60.416 41.301334l-14.677333 12.6976c-46.011733 39.594667-78.779733 59.392-128.887467 70.314666-73.3184 15.906133-133.461333 0.955733-177.3568-45.397333z m0 170.666667a23.893333 23.893333 0 0 1 34.747733-32.768c31.607467 33.314133 74.615467 44.032 132.437334 31.402666 40.7552-8.8064 67.3792-24.849067 107.861333-59.733333l14.677333-12.6976c28.8768-24.917333 47.991467-38.434133 72.840534-49.083733 53.725867-22.869333 106.222933-19.6608 155.101866 9.693866a23.893333 23.893333 0 1 1-24.576 40.96c-35.6352-21.367467-72.021333-23.620267-111.752533-6.690133-19.2512 8.192-34.952533 19.387733-60.416 41.301333l-14.677333 12.6976c-46.011733 39.594667-78.779733 59.392-128.887467 70.314667-73.3184 15.906133-133.461333 0.955733-177.3568-45.397333zM415.744 204.8a34.133333 34.133333 0 1 1 0-68.266667H887.466667A102.4 102.4 0 0 1 989.866667 238.933333V955.733333a68.266667 68.266667 0 0 1-68.266667 68.266667H409.6a34.133333 34.133333 0 1 1 0-68.266667H921.6V238.933333a34.133333 34.133333 0 0 0-34.133333-34.133333H415.675733zM409.6 955.733333a34.133333 34.133333 0 1 1 0 68.266667h-136.533333A102.4 102.4 0 0 1 170.666667 921.6V369.664a34.133333 34.133333 0 0 1 68.266666 0V921.6a34.133333 34.133333 0 0 0 34.133334 34.133333h136.533333z" fill="#FF7C0E" p-id="44155"></path></svg>