<?xml version="1.0" standalone="no"?><!DOCTYPE svg PUBLIC "-//W3C//DTD SVG 1.1//EN" "http://www.w3.org/Graphics/SVG/1.1/DTD/svg11.dtd"><svg t="1774366828494" class="icon" viewBox="0 0 1024 1024" version="1.1" xmlns="http://www.w3.org/2000/svg" p-id="54424" xmlns:xlink="http://www.w3.org/1999/xlink" width="200" height="200"><path d="M576 512a64 64 0 0 1 0 128H192a64 64 0 0 0-64 64v192h192a64 64 0 0 1 0 128H128a128 128 0 0 1-128-128v-192a192 192 0 0 1 192-192z m210.752 146.752a64 64 0 0 1 90.496 0l128 128c40.32 40.32 11.776 109.248-45.248 109.248H615.552l17.664 35.392a64 64 0 0 1-114.432 57.216l-64-128A64 64 0 0 1 512 768h293.504l-18.752-18.752a64 64 0 0 1 0-90.496zM352 0a224 224 0 1 1 0 448 224 224 0 0 1 0-448z m0 128a96 96 0 1 0 0 192 96 96 0 0 0 0-192z" fill="#F05A23" p-id="54425"></path></svg>