<?xml version="1.0" standalone="no"?><!DOCTYPE svg PUBLIC "-//W3C//DTD SVG 1.1//EN" "http://www.w3.org/Graphics/SVG/1.1/DTD/svg11.dtd"><svg t="1774366242175" class="icon" viewBox="0 0 1024 1024" version="1.1" xmlns="http://www.w3.org/2000/svg" p-id="17991" xmlns:xlink="http://www.w3.org/1999/xlink" width="200" height="200"><path d="M945.7152 139.8272c-18.0224-24.192-39.3216-35.9936-63.744-35.9936H512L418.9696 51.2H142.08c-24.4736 0-45.7728 12.1088-63.8464 36.352A136.8064 136.8064 0 0 0 51.2 171.3664v681.2672a136.8064 136.8064 0 0 0 27.008 84.1728C96.256 960.768 117.5552 972.8 142.08 972.8h739.84c24.4736 0 45.7472-12.0064 63.7952-35.9936a136.8064 136.8064 0 0 0 27.0592-84.1728V224a136.2176 136.2176 0 0 0-27.0592-84.1728zM739.584 756.0704a12.288 12.288 0 0 1-13.056 10.0864H300.3648a13.312 13.312 0 0 1-16.5632-14.8992 217.728 217.728 0 0 1 34.9184-99.9424 229.7344 229.7344 0 0 1 107.9808-89.6256c2.8928-1.2288 5.76-2.6112 8.704-3.7632a20.6592 20.6592 0 0 1 2.56-1.2032c-51.9936-31.6928-81.9456-76.3392-83.84-137.6a149.632 149.632 0 0 1 43.2128-111.3856 156.928 156.928 0 0 1 232.0384 2.6624c67.456 72.8576 48.8192 199.168-43.1872 246.528 4.4544 2.0992 8.5504 3.584 12.672 5.4784a227.7376 227.7376 0 0 1 130.4576 138.9568c4.5568 15.2064 8.192 30.72 10.7776 46.3616 0.4096 2.816 0.256 5.632-0.512 8.3456z" fill="#FFB822" p-id="17992"></path></svg>