<?xml version="1.0" standalone="no"?><!DOCTYPE svg PUBLIC "-//W3C//DTD SVG 1.1//EN" "http://www.w3.org/Graphics/SVG/1.1/DTD/svg11.dtd"><svg t="1774366296111" class="icon" viewBox="0 0 1024 1024" version="1.1" xmlns="http://www.w3.org/2000/svg" p-id="21024" xmlns:xlink="http://www.w3.org/1999/xlink" width="200" height="200"><path d="M512 848l-187.2 97.6c-16 8-35.2 1.6-43.2-12.8-3.2-6.4-4.8-12.8-3.2-20.8l35.2-208-152-147.2c-12.8-12.8-12.8-32 0-44.8 4.8-4.8 11.2-8 17.6-9.6l209.6-30.4 92.8-188.8c8-16 27.2-22.4 43.2-14.4 6.4 3.2 11.2 8 14.4 14.4l92.8 188.8 209.6 30.4c17.6 3.2 30.4 19.2 27.2 36.8-1.6 6.4-4.8 12.8-9.6 17.6L710.4 704l35.2 208c3.2 17.6-8 33.6-25.6 36.8-6.4 1.6-14.4 0-20.8-3.2L512 848z" fill="#FF7420" p-id="21025"></path><path d="M273.6 96c0-17.6 14.4-32 32-32s32 14.4 32 32v254.4c0 17.6-14.4 32-32 32s-32-14.4-32-32V96zM688 96c0-17.6 14.4-32 32-32s32 14.4 32 32v254.4c0 17.6-14.4 32-32 32s-32-14.4-32-32V96zM488 91.2c0-17.6 14.4-32 32-32s32 14.4 32 32v78.4c0 17.6-14.4 32-32 32s-32-14.4-32-32V91.2z" fill="#FFAC79" p-id="21026"></path></svg>