<?xml version="1.0" standalone="no"?><!DOCTYPE svg PUBLIC "-//W3C//DTD SVG 1.1//EN" "http://www.w3.org/Graphics/SVG/1.1/DTD/svg11.dtd"><svg t="1774366640723" class="icon" viewBox="0 0 1024 1024" version="1.1" xmlns="http://www.w3.org/2000/svg" p-id="41202" xmlns:xlink="http://www.w3.org/1999/xlink" width="200" height="200"><path d="M839.2 102.2H183.9c-52.6 0-79.9 25.4-81.8 76.1v667.1c1.9 50.7 29.2 76.1 81.8 76.1h655.4c54.6 0 81.9-27.3 81.9-81.9V184.1c0-54.6-27.3-81.9-82-81.9z m-23 570.3c0 38.6-31.4 70.1-70.1 70.1H281.7c-38.6 0-70.1-31.4-70.1-70.1V337.4c0-38.6 31.4-70.1 70.1-70.1h464.4c38.6 0 70.1 31.4 70.1 70.1v335.1z" fill="#1CB1F5" p-id="41203"></path><path d="M746.1 305.8H281.7c-17.4 0-31.6 14.2-31.6 31.6v335.2c0 17.4 14.2 31.6 31.6 31.6h464.4c17.4 0 31.6-14.2 31.6-31.6V337.4c0-17.5-14.2-31.6-31.6-31.6z m-88.4 186.9c0 3.2-3.8 4.8-6.1 2.5l-36.1-36.1-112.3 112.4c-0.5 0.7-1.1 1.4-1.7 2-3.5 3.5-8.1 5.2-12.7 5.2s-9.2-1.7-12.7-5.2c-0.6-0.6-1.2-1.3-1.7-2L433.8 531 365 599.7c-6.9 6.9-18.3 6.9-25.2 0-6.9-6.9-6.9-18.3 0-25.2l81.2-81.2c3.9-3.9 9.3-5.6 14.5-5.1 4 0.3 8 2.1 11 5.1l42.2 42.2L590.3 434l-36.1-36.1c-2.2-2.2-0.7-6.1 2.5-6.1h97.4c2 0 3.6 1.6 3.6 3.6v97.3z" fill="#1CB1F5" p-id="41204"></path></svg>