<?xml version="1.0" standalone="no"?><!DOCTYPE svg PUBLIC "-//W3C//DTD SVG 1.1//EN" "http://www.w3.org/Graphics/SVG/1.1/DTD/svg11.dtd"><svg t="1774366178570" class="icon" viewBox="0 0 1024 1024" version="1.1" xmlns="http://www.w3.org/2000/svg" p-id="12834" xmlns:xlink="http://www.w3.org/1999/xlink" width="200" height="200"><path d="M512 172.544A262.4 262.4 0 1 0 774.4 435.2 262.656 262.656 0 0 0 512 172.544z m0 512A249.6 249.6 0 1 1 761.6 435.2 249.856 249.856 0 0 1 512 684.544z" fill="#6666FF" p-id="12835"></path><path d="M512 0a512 512 0 1 0 512 512A512 512 0 0 0 512 0z m226.56 768l-33.28 96-81.92-142.08a302.08 302.08 0 0 1-216.576 2.304l-88.064 153.6-33.28-95.744-99.84 18.944 94.208-163.072a307.2 307.2 0 1 1 468.736-5.12l89.856 155.392z" fill="#6666FF" p-id="12836"></path><path d="M308.992 370.176h51.2a39.168 39.168 0 0 1 25.6 7.936 25.6 25.6 0 0 1 8.704 19.712 25.6 25.6 0 0 1-17.152 25.6 25.6 25.6 0 0 1 16.128 8.704 26.88 26.88 0 0 1 5.376 17.664 27.904 27.904 0 0 1-11.264 25.6 51.2 51.2 0 0 1-27.392 6.4h-51.2z m18.176 14.848v31.232h27.392a27.648 27.648 0 0 0 16.384-3.84 15.104 15.104 0 0 0 4.608-12.288 13.824 13.824 0 0 0-4.608-11.52 28.928 28.928 0 0 0-16.128-3.584z m0 46.08v34.048h29.696a34.816 34.816 0 0 0 16.128-3.072 14.08 14.08 0 0 0 7.168-13.312 16.384 16.384 0 0 0-5.376-13.568 28.672 28.672 0 0 0-17.408-4.096zM460.8 400.384v17.408a42.752 42.752 0 0 0-11.264-1.536 17.152 17.152 0 0 0-12.544 5.376 22.016 22.016 0 0 0-6.4 16.128v42.24h-17.408v-79.36h17.408v11.264a25.6 25.6 0 0 1 7.68-9.216 19.2 19.2 0 0 1 12.544-4.352 23.808 23.808 0 0 1 9.984 2.048zM532.992 407.04a31.232 31.232 0 0 1 7.424 22.272v51.2h-16.384v-10.496a28.928 28.928 0 0 1-11.52 9.216 43.52 43.52 0 0 1-17.664 3.328 28.672 28.672 0 0 1-19.456-6.144 21.504 21.504 0 0 1-7.424-17.408 25.6 25.6 0 0 1 11.52-22.272 49.408 49.408 0 0 1 25.6-6.144h17.408v-1.792c0-10.24-5.888-15.616-17.152-15.616a21.76 21.76 0 0 0-12.288 3.072 12.544 12.544 0 0 0-5.888 9.728h-17.408a27.648 27.648 0 0 1 12.032-20.992 45.056 45.056 0 0 1 25.6-5.888 34.56 34.56 0 0 1 25.6 7.936z m-9.984 36.096h-16.128c-14.08 0-20.992 4.864-20.992 14.848a9.472 9.472 0 0 0 3.328 7.168 14.336 14.336 0 0 0 9.472 2.816 25.6 25.6 0 0 0 17.664-5.888 20.224 20.224 0 0 0 6.656-15.872zM629.76 430.848v49.152h-17.664v-47.616c0-12.8-5.888-19.456-17.92-19.456a15.36 15.36 0 0 0-11.264 4.608 21.76 21.76 0 0 0-6.656 14.592v47.872h-17.408v-79.36h17.408V409.6a31.744 31.744 0 0 1 10.496-8.448 27.392 27.392 0 0 1 13.056-3.072c19.968 0.256 29.952 11.52 29.952 32.768zM704.512 368.128h17.664v111.872h-16.384v-8.448a28.672 28.672 0 0 1-23.808 10.496 33.536 33.536 0 0 1-27.648-12.288 46.592 46.592 0 0 1-9.216-29.952 44.032 44.032 0 0 1 8.96-28.928 31.744 31.744 0 0 1 26.88-12.544 28.672 28.672 0 0 1 23.552 13.056z m-36.864 51.2a34.048 34.048 0 0 0-4.608 19.456 38.4 38.4 0 0 0 4.352 19.968 19.2 19.2 0 0 0 17.152 8.192 18.432 18.432 0 0 0 15.872-8.192 35.072 35.072 0 0 0 4.864-18.944 31.232 31.232 0 0 0-6.144-20.224 17.664 17.664 0 0 0-14.08-6.912 20.224 20.224 0 0 0-17.408 7.68z" fill="#6666FF" p-id="12837"></path></svg>