<?xml version="1.0" standalone="no"?><!DOCTYPE svg PUBLIC "-//W3C//DTD SVG 1.1//EN" "http://www.w3.org/Graphics/SVG/1.1/DTD/svg11.dtd"><svg t="1774366206010" class="icon" viewBox="0 0 1024 1024" version="1.1" xmlns="http://www.w3.org/2000/svg" p-id="14940" xmlns:xlink="http://www.w3.org/1999/xlink" width="200" height="200"><path d="M896.768 347.2896A105.728 105.728 0 0 0 843.776 256l-277.9136-159.3856a105.728 105.728 0 0 0-105.472 0.3072L183.296 257.8944a105.728 105.728 0 0 0-52.48 91.4432l0.8704 320.4608a105.7792 105.7792 0 0 0 52.9408 91.1872l277.9648 159.488a105.7792 105.7792 0 0 0 105.472-0.3072l277.0432-160.9216a105.8304 105.8304 0 0 0 52.5312-91.4944zM814.08 706.0992l-277.0944 160.9728a44.288 44.288 0 0 1-44.032 0L215.04 707.6864a43.9808 43.9808 0 0 1-22.1184-38.0928l-0.6656-320.4096a44.1344 44.1344 0 0 1 21.9136-38.1952L491.52 150.016a44.0832 44.0832 0 0 1 44.032 0l277.9136 159.488a44.0832 44.0832 0 0 1 22.1184 38.0928l0.8704 320.4096a44.3904 44.3904 0 0 1-22.3744 38.0928z" fill="#F66A2F" p-id="14941"></path><path d="M664.3712 416.6144A119.6032 119.6032 0 0 0 544.9216 296.96H412.928a30.72 30.72 0 0 0-30.72 30.72v360.96a30.72 30.72 0 0 0 61.44 0v-152.6272h25.2416l117.76 173.6704a30.72 30.72 0 1 0 50.8416-34.5088l-94.464-139.1616h1.792a119.552 119.552 0 0 0 119.552-119.3984z m-220.7232 25.9584V358.4h101.2736a58.0096 58.0096 0 1 1 0 115.968H443.648z" fill="#F66A2F" p-id="14942"></path></svg>