<?xml version="1.0" standalone="no"?><!DOCTYPE svg PUBLIC "-//W3C//DTD SVG 1.1//EN" "http://www.w3.org/Graphics/SVG/1.1/DTD/svg11.dtd"><svg t="1774366096193" class="icon" viewBox="0 0 1024 1024" version="1.1" xmlns="http://www.w3.org/2000/svg" p-id="7270" xmlns:xlink="http://www.w3.org/1999/xlink" width="200" height="200"><path d="M520.00237 128c119.277037 0 215.988148 93.108148 215.988149 208.004741 0 114.87763-96.711111 207.985778-215.988149 207.985778-119.296 0-215.988148-93.108148-215.988148-207.985778S400.687407 128 519.983407 128z m0 62.577778c-85.257481 0-153.41037 65.649778-153.41037 145.426963 0 79.777185 68.152889 145.408 153.41037 145.408 85.238519 0 153.41037-65.630815 153.410371-145.408 0-79.777185-68.171852-145.426963-153.410371-145.426963z" fill="#FFA500" fill-opacity=".5" p-id="7271"></path><path d="M721.673481 320a151.703704 151.703704 0 0 1 150.509038 132.740741l34.322962 272.592592a151.703704 151.703704 0 0 1-150.509037 170.666667h-471.988148a151.703704 151.703704 0 0 1-150.509037-170.666667l34.322963-272.592592a151.703704 151.703704 0 0 1 150.509037-132.740741h403.342222z m-15.36 245.76a32.009481 32.009481 0 0 0-44.544 7.907556c-38.987852 55.789037-85.447111 82.337185-141.767111 82.337185-56.32 0-102.779259-26.548148-141.767111-82.337185a32.009481 32.009481 0 0 0-52.470518 36.655407c50.479407 72.229926 116.015407 109.681778 194.237629 109.681778s143.739259-37.451852 194.218667-109.681778a32.009481 32.009481 0 0 0-7.888593-44.562963z" fill="#FEA917" p-id="7272"></path></svg>