<?xml version="1.0" standalone="no"?><!DOCTYPE svg PUBLIC "-//W3C//DTD SVG 1.1//EN" "http://www.w3.org/Graphics/SVG/1.1/DTD/svg11.dtd"><svg t="1774367107095" class="icon" viewBox="0 0 1024 1024" version="1.1" xmlns="http://www.w3.org/2000/svg" p-id="75160" xmlns:xlink="http://www.w3.org/1999/xlink" width="200" height="200"><path d="M268 368l0.032-2.108C270.244 296.652 381.352 256 516 256c136.008 0 248 41.48 248 112v292c0 70.52-111.992 112-248 112-136.008 0-248-41.48-248-112V368z m248-48c-54.48 0-105.18 7.944-141.62 21.44-16.308 6.04-28.744 12.856-36.324 19.496-2.868 2.508-4.72 4.712-5.66 6.416l-0.352 0.648 0.216 0.396 0.448 0.776c1.012 1.624 2.768 3.636 5.348 5.892 7.58 6.64 20.016 13.456 36.32 19.496C410.824 408.056 461.52 416 516 416c54.48 0 105.18-7.944 141.62-21.44 16.308-6.04 28.744-12.856 36.324-19.496 2.58-2.256 4.336-4.268 5.348-5.892l0.312-0.524 0.34-0.648h0.004l0.004-0.004-0.212-0.392-0.448-0.776c-1.012-1.624-2.768-3.636-5.348-5.892-7.58-6.64-20.016-13.456-36.32-19.496C621.176 327.944 570.48 320 516 320z" fill="#2E75E6" p-id="75161"></path><path d="M960 528v-63.696l-156.716 94.356 37.14 61.68 41.248-24.832-0.42 2.228c-32.108 163.568-174.988 287.424-347.3 290.216L528 888v72c236.2 0 428.128-189.564 431.944-424.856L960 528zM496 64C259.8 64 67.872 253.564 64.056 488.856L64 496v56.772l143.732-67.76-30.704-65.124-36.204 17.068 0.864-5.04c29.888-166.36 174.068-293.04 348.36-295.868L496 136V64z" fill="#35CBB9" p-id="75162"></path></svg>