<?xml version="1.0" standalone="no"?><!DOCTYPE svg PUBLIC "-//W3C//DTD SVG 1.1//EN" "http://www.w3.org/Graphics/SVG/1.1/DTD/svg11.dtd"><svg t="1774367039034" class="icon" viewBox="0 0 1024 1024" version="1.1" xmlns="http://www.w3.org/2000/svg" p-id="72136" xmlns:xlink="http://www.w3.org/1999/xlink" width="200" height="200"><path d="M512 512m-512 0a512 512 0 1 0 1024 0 512 512 0 1 0-1024 0Z" fill="#FFA4A4" p-id="72137"></path><path d="M759.744 256H264.256C247.893333 256 234.666667 269.248 234.666667 285.589333v372.245334c0 16.32 13.248 29.568 29.589333 29.568h177.493333v69.973333h-99.84a14.762667 14.762667 0 0 0-14.805333 14.762667c0 8.213333 6.613333 14.805333 14.805333 14.805333h340.181334c8.213333 0 14.805333-6.613333 14.805333-14.805333a14.762667 14.762667 0 0 0-14.805333-14.784h-99.84v-69.952h177.493333c16.341333 0 29.589333-13.226667 29.589333-29.568v-372.266667c0-16.32-13.248-29.568-29.589333-29.568z m-207.061333 501.354667h-81.365334v-69.952h81.365334v69.973333z m207.061333-99.52H264.256v-372.266667h495.488v372.266667z" fill="#FFFFFF" p-id="72138"></path></svg>