<?xml version="1.0" standalone="no"?><!DOCTYPE svg PUBLIC "-//W3C//DTD SVG 1.1//EN" "http://www.w3.org/Graphics/SVG/1.1/DTD/svg11.dtd"><svg t="1774366668725" class="icon" viewBox="0 0 1024 1024" version="1.1" xmlns="http://www.w3.org/2000/svg" p-id="43125" xmlns:xlink="http://www.w3.org/1999/xlink" width="200" height="200"><path d="M530.904615 215.827692l88.221539 86.646154-223.704616 190.621539-152.812307-127.606154-130.756923 105.550769v85.070769l130.756923-105.550769 152.812307 127.606154 270.966154-230.006154 77.193846 72.467692v-204.8zM559.261538 775.089231v33.083077h33.083077c-12.603077-9.452308-22.055385-20.48-33.083077-33.083077z" fill="#F36965" p-id="43126"></path><path d="M187.470769 563.987692v244.184616H299.323077V563.987692l-56.713846-45.686154zM374.941538 627.003077v181.169231h110.276924v-236.307693L395.421538 645.907692zM740.430769 461.587692c-92.947692 0-170.141538 74.043077-170.141538 166.99077 0 92.947692 77.193846 165.415385 170.141538 165.415384s170.141538-74.043077 170.141539-165.415384C910.572308 535.630769 834.953846 461.587692 740.430769 461.587692z m70.892308 261.513846h-137.058462c-4.726154 0-7.876923-3.150769-7.876923-7.876923 0-37.809231 28.356923-69.316923 64.59077-74.043077-23.630769-4.726154-42.535385-26.781538-42.535385-51.987692 0-28.356923 23.630769-51.987692 53.563077-51.987692s53.563077 23.630769 53.563077 51.987692c0 25.206154-17.329231 47.261538-42.535385 51.987692 37.809231 4.726154 66.166154 36.233846 66.166154 74.043077 0 4.726154-3.150769 7.876923-7.876923 7.876923z" fill="#F36965" p-id="43127"></path></svg>