<?xml version="1.0" standalone="no"?><!DOCTYPE svg PUBLIC "-//W3C//DTD SVG 1.1//EN" "http://www.w3.org/Graphics/SVG/1.1/DTD/svg11.dtd"><svg t="1774366447528" class="icon" viewBox="0 0 1024 1024" version="1.1" xmlns="http://www.w3.org/2000/svg" p-id="30203" xmlns:xlink="http://www.w3.org/1999/xlink" width="200" height="200"><path d="M467.049872 276.665898a8.765785 8.765785 0 0 1-8.561929 8.765784h-101.927728a8.765785 8.765785 0 0 1-8.561929-8.765784V142.732863H297.442132a8.561929 8.561929 0 0 1-7.950362-5.300242 8.96964 8.96964 0 0 1 2.24241-9.581206L401.408415 2.88802a8.358074 8.358074 0 0 1 12.639038 0l110.285802 124.963395a8.96964 8.96964 0 0 1 1.426988 9.581206 8.561929 8.561929 0 0 1-7.746507 5.300242h-50.963864z" fill="#33CBCC" p-id="30204"></path><path d="M630.134237 171.884193a8.765785 8.765785 0 0 0-8.561929-8.765784h-101.927728a8.765785 8.765785 0 0 0-8.56193 8.765784V305.817228h-50.556153a8.561929 8.561929 0 0 0-7.950362 5.300242 8.96964 8.96964 0 0 0 1.426988 9.581206l110.285801 124.963395a8.358074 8.358074 0 0 0 12.639039 0l110.285802-124.963395a8.96964 8.96964 0 0 0 1.426988-9.581206 8.561929 8.561929 0 0 0-7.542652-5.300242h-50.963864z" fill="#33CBCC" p-id="30205"></path><path d="M132.115358 331.706871c-3.873254 4.48482-3.057832 12.842894-2.446266 20.385546l30.578318 416.884407a22.016389 22.016389 0 0 0 9.581207 16.716148L515.975181 1021.553735a33.840006 33.840006 0 0 0 32.413018-5.096387L882.915002 822.386954a20.385546 20.385546 0 0 0 10.192773-17.735425s2.24241-426.465614 1.426988-433.192844A28.947475 28.947475 0 0 0 882.915002 346.588319l-120.478574-71.349409a20.385546 20.385546 0 0 0-16.104581-2.446266 20.385546 20.385546 0 0 0-12.842894 9.988918 22.220245 22.220245 0 0 0 8.154218 29.762896l83.580737 49.536876 8.154219 5.300242L515.975181 550.443775 191.845006 353.111694h-1.019277l84.396159-48.721454a20.385546 20.385546 0 0 0 6.931085-28.132053l-2.853976-4.892531A20.385546 20.385546 0 0 0 250.963088 262.803727L135.377045 329.872172a8.96964 8.96964 0 0 0-2.446266 1.630844zM414.047453 602.630772a23.647233 23.647233 0 0 1-14.677593 10.804339 24.462655 24.462655 0 0 1-18.346991-2.650121l-142.698819-81.542182A23.035667 23.035667 0 0 1 230.577543 496.218224a23.851088 23.851088 0 0 1 14.677593-10.600484 24.66651 24.66651 0 0 1 18.143135 2.446266l142.69882 81.542182a22.627956 22.627956 0 0 1 7.950362 32.820729z" fill="#33CBCC" p-id="30206"></path></svg>