<?xml version="1.0" standalone="no"?><!DOCTYPE svg PUBLIC "-//W3C//DTD SVG 1.1//EN" "http://www.w3.org/Graphics/SVG/1.1/DTD/svg11.dtd"><svg t="1774366814933" class="icon" viewBox="0 0 1024 1024" version="1.1" xmlns="http://www.w3.org/2000/svg" p-id="53400" xmlns:xlink="http://www.w3.org/1999/xlink" width="200" height="200"><path d="M0 0h1024v1024H0z" fill="#FFFFFF" p-id="53401"></path><path d="M642.517333 945.792H97.92c-6.954667 0-12.586667-4.266667-12.586667-9.045333v-24.362667c0-4.992 5.632-9.045333 12.586667-9.045333h514.688l29.866667 42.282666z m-423.253333-82.645333c0 5.418667-6.314667 9.813333-14.08 9.813333H99.498667c-7.808 0-14.122667-4.266667-14.122667-9.813333v-170.24c0-5.418667 6.314667-9.813333 14.122667-9.813334h105.685333c7.765333 0 14.08 4.266667 14.08 9.813334v170.24z m170.666667-4.48a14.634667 14.634667 0 0 1-14.08 15.104H270.293333a14.634667 14.634667 0 0 1-14.08-15.104v-262.016a14.634667 14.634667 0 0 1 14.08-15.104h105.728a14.592 14.592 0 0 1 14.08 15.104v261.845333z m180.864 1.408c0 10.88-6.314667 13.696-14.08 13.696h-105.514667c-7.765333 0-14.08-2.773333-14.08-13.696v-354.133334c0-10.88 6.314667-13.696 14.08-13.696h105.728c7.765333 0 14.08 2.773333 14.08 13.696z m45.696-113.152V293.717333c0-17.322667 6.314667-17.066667 14.122666-17.066666h105.685334c7.765333 0 14.08 0 14.08 17.066666 0 0 1.109333 340.992 0 354.432a131.712 131.712 0 0 0-133.76 98.773334z" fill="#F3C927" p-id="53402"></path><path d="M689.834667 152.192L601.472 42.666667l-101.248 109.525333h77.056c-17.365333 80.597333-103.509333 349.184-485.12 388.608 0 0 443.733333 48.341333 520.533333-388.608z m84.778666 510.293333a165.461333 165.461333 0 1 0 165.461334 165.461334 165.461333 165.461333 0 0 0-165.461334-165.504z m55.765334 160.896v19.2h-39.168v17.28h39.168v19.2h-39.168v43.264h-35.669334v-43.306666h-38.912v-19.2h38.912v-17.322667h-38.912v-19.2h29.866667l-40.661333-76.8h40.661333l17.450667 43.264c4.48 10.794667 7.253333 20.010667 10.496 29.482667h0.512c3.242667-8.917333 6.485333-19.2 10.709333-29.866667l17.706667-42.965333h39.936l-42.666667 76.8h29.866667z" fill="#F3C927" p-id="53403"></path></svg>