<?xml version="1.0" standalone="no"?><!DOCTYPE svg PUBLIC "-//W3C//DTD SVG 1.1//EN" "http://www.w3.org/Graphics/SVG/1.1/DTD/svg11.dtd"><svg t="1774366398102" class="icon" viewBox="0 0 1024 1024" version="1.1" xmlns="http://www.w3.org/2000/svg" p-id="26312" xmlns:xlink="http://www.w3.org/1999/xlink" width="200" height="200"><path d="M512 448h166.4c6.4 0 12.8 0 12.8-6.4v-44.8c0-6.4-6.4-6.4-12.8-6.4H512c-6.4 0-6.4 0-6.4 6.4v44.8c0 6.4 0 6.4 6.4 6.4z m441.6-192l-256-256H147.2c-38.4 0-76.8 32-76.8 70.4v876.8c0 38.4 32 70.4 70.4 70.4h729.6c38.4 0 70.4-32 70.4-70.4L953.6 256zM467.2 396.8c0-12.8 6.4-25.6 12.8-32s12.8-12.8 32-12.8h172.8c19.2 0 25.6 6.4 32 12.8 6.4 6.4 12.8 19.2 12.8 32V448c0 12.8-6.4 25.6-12.8 32-6.4 6.4-19.2 12.8-32 12.8H512c-19.2 0-25.6 0-32-12.8s-12.8-19.2-12.8-32v-51.2z m-12.8 153.6v-19.2c0-6.4 0-6.4 6.4-12.8 0 0 6.4-6.4 12.8-6.4H723.2c6.4 0 6.4 6.4 12.8 6.4 0 6.4 6.4 6.4 6.4 12.8v185.6c0 12.8-6.4 19.2-19.2 19.2-12.8 0-19.2-6.4-19.2-19.2V556.8c0-6.4 0-6.4-6.4-6.4H499.2v172.8c0 12.8-6.4 19.2-19.2 19.2-12.8 0-19.2-6.4-19.2-19.2V550.4zM384 608v153.6c0 32-12.8 51.2-44.8 51.2-6.4 0-19.2 0-32-6.4-19.2-6.4-25.6-12.8-25.6-25.6 0-6.4 0-6.4 6.4-12.8s6.4-6.4 12.8-6.4h12.8l12.8 12.8h12.8c6.4 0 6.4-6.4 6.4-12.8v-128c-6.4 0-12.8 6.4-12.8 6.4-6.4 0-6.4 0-12.8 6.4l-25.6 12.8c-6.4 0-12.8 0-12.8-6.4s-6.4-6.4-6.4-12.8 6.4-19.2 19.2-19.2c12.8-6.4 25.6-6.4 32-12.8 6.4-6.4 19.2-6.4 25.6-12.8v-128h-57.6c-12.8 0-19.2-6.4-19.2-19.2 0-12.8 6.4-19.2 19.2-19.2h51.2V352c0-12.8 6.4-19.2 19.2-19.2 12.8 0 19.2 6.4 19.2 19.2v76.8h44.8c19.2 0 25.6 6.4 25.6 19.2 0 12.8-6.4 19.2-19.2 19.2H384v96c6.4-6.4 12.8-6.4 12.8-12.8l12.8-12.8c6.4-6.4 6.4-6.4 12.8-6.4h12.8c6.4 0 12.8 6.4 12.8 6.4v25.6s-6.4 6.4-25.6 19.2c-6.4 0-12.8 6.4-19.2 12.8-6.4 0-12.8 6.4-19.2 12.8z m364.8 204.8c0 6.4-6.4 6.4-6.4 6.4h-12.8c-6.4 0-6.4-6.4-12.8-6.4-12.8-12.8-25.6-25.6-44.8-38.4-19.2-12.8-38.4-25.6-57.6-44.8-6.4 0-6.4-6.4-12.8-6.4l-6.4-6.4-6.4 6.4s0 6.4-6.4 6.4c-6.4 12.8-19.2 25.6-32 38.4s-32 19.2-51.2 25.6c-19.2 6.4-32 12.8-44.8 19.2-12.8 6.4-19.2 6.4-25.6 6.4-12.8 0-19.2-6.4-19.2-19.2 0-12.8 6.4-19.2 19.2-19.2 51.2-19.2 89.6-38.4 108.8-57.6 25.6-19.2 38.4-51.2 38.4-96v-44.8c0-12.8 6.4-25.6 19.2-25.6h12.8s6.4 0 6.4 6.4c0 0 0 6.4 6.4 6.4V627.2c0 25.6-6.4 51.2-12.8 70.4h12.8c6.4 0 12.8 0 19.2 6.4-6.4 0 0 0 6.4 6.4s12.8 6.4 12.8 12.8c6.4 6.4 19.2 12.8 25.6 19.2 6.4 6.4 19.2 12.8 25.6 19.2h6.4l19.2 19.2c6.4 6.4 6.4 6.4 12.8 6.4 6.4 6.4 6.4 6.4 6.4 12.8s-6.4 6.4-6.4 12.8zM697.6 256V76.8L870.4 256h-172.8z" fill="#ff9800" p-id="26313"></path></svg>