<?xml version="1.0" standalone="no"?><!DOCTYPE svg PUBLIC "-//W3C//DTD SVG 1.1//EN" "http://www.w3.org/Graphics/SVG/1.1/DTD/svg11.dtd"><svg t="1774367126806" class="icon" viewBox="0 0 1024 1024" version="1.1" xmlns="http://www.w3.org/2000/svg" p-id="76173" xmlns:xlink="http://www.w3.org/1999/xlink" width="200" height="200"><path d="M121.344 902.656c-161.792-161.826133-161.792-619.485867 0-781.312 161.826133-161.792 619.485867-161.792 781.312 0 161.792 161.826133 161.792 619.485867 0 781.312-161.826133 161.792-619.485867 161.792-781.312 0z m280.832-251.613867h219.648a16.196267 16.196267 0 0 0 0-32.375466h-219.648a16.196267 16.196267 0 0 0 0 32.375466z m399.496533 43.588267a55.637333 55.637333 0 0 0-1.501866-18.670933l-26.948267-106.496a50.414933 50.414933 0 0 0-18.090667-27.9552c3.549867-6.4512 5.546667-13.858133 5.546667-21.742934V267.195733A45.329067 45.329067 0 0 0 715.349333 221.866667h-406.698666a45.329067 45.329067 0 0 0-45.329067 45.329066v252.586667c0 7.850667 1.9968 15.274667 5.5296 21.725867a50.414933 50.414933 0 0 0-18.0736 27.9552l-26.965333 106.496c-1.536 6.0928-2.048 12.407467-1.4848 18.670933H221.866667v61.3376C221.866667 781.4656 242.176 802.133333 267.195733 802.133333h489.608534C781.824 802.133333 802.133333 781.4656 802.133333 755.968V694.613333h-0.4608zM295.697067 267.195733a12.970667 12.970667 0 0 1 12.9536-12.9536h406.698666a12.970667 12.970667 0 0 1 12.970667 12.970667v252.552533a12.970667 12.970667 0 0 1-12.970667 12.970667h-406.698666a12.970667 12.970667 0 0 1-12.970667-12.970667V267.195733z m-40.482134 416.699734l26.965334-106.496c1.792-7.1168 6.946133-12.288 12.2368-12.288H729.6c5.290667 0 10.4448 5.1712 12.253867 12.288l26.965333 106.496c1.6896 6.741333 0.375467 13.755733-3.549867 18.773333-1.7408 2.2528-4.6592 4.9152-8.704 4.9152H267.451733c-4.061867 0-6.997333-2.6624-8.721066-4.898133a21.947733 21.947733 0 0 1-3.5328-18.773334z m514.542934 72.072533c0 7.594667-5.802667 13.789867-12.970667 13.789867H267.2128c-7.133867 0-12.9536-6.1952-12.9536-13.789867v-17.7152c4.3008 1.297067 8.7552 1.9456 13.243733 1.9456H756.565333c4.4544 0 8.9088-0.648533 13.192534-1.928533v17.698133zM526.933333 392.021333h38.4c8.2432 0 14.933333-6.2976 14.933334-14.045866 0-7.765333-6.690133-14.062933-14.933334-14.062934h-32.221866l34.781866-32.733866a13.482667 13.482667 0 0 0 0-19.8656 15.598933 15.598933 0 0 0-21.111466 0L512 344.064l-34.781867-32.733867a15.598933 15.598933 0 0 0-21.128533 0 13.482667 13.482667 0 0 0 0 19.882667l34.781867 32.7168h-32.2048c-8.2432 0-14.933333 6.2976-14.933334 14.062933 0 7.748267 6.690133 14.045867 14.933334 14.045867h38.4v18.7392h-38.4c-8.2432 0-14.933333 6.280533-14.933334 14.045867 0 7.748267 6.690133 14.045867 14.933334 14.045866h38.4v24.968534c0 7.748267 6.690133 14.045867 14.933333 14.045866s14.933333-6.2976 14.933333-14.045866v-24.968534h38.4c8.2432 0 14.933333-6.2976 14.933334-14.045866 0-7.765333-6.690133-14.045867-14.933334-14.045867h-38.4V392.021333z" fill="#FF4D4F" p-id="76174"></path></svg>