<?xml version="1.0" standalone="no"?><!DOCTYPE svg PUBLIC "-//W3C//DTD SVG 1.1//EN" "http://www.w3.org/Graphics/SVG/1.1/DTD/svg11.dtd"><svg t="1774366235624" class="icon" viewBox="0 0 1024 1024" version="1.1" xmlns="http://www.w3.org/2000/svg" p-id="17848" xmlns:xlink="http://www.w3.org/1999/xlink" width="200" height="200"><path d="M611.690408 695.461963c-5.870783-2.257993-11.741566-2.257993-17.612348-0.451599-5.870783 1.806395-10.16097 6.548181-12.870563 14.451157-1.580595 5.193385-2.935391 10.16097-4.290187 14.676958-1.354796 4.515987-2.709592 9.257773-4.064388 13.999558-1.354796 4.967585-3.161191 10.16097-5.193385 16.031754-2.032194 5.644983-4.515987 12.193164-7.677178 19.644542-3.161191 8.128776-7.451378 11.741566-13.096361 11.289967-5.644983-0.451599-10.16097-3.838589-13.096362-9.935171-3.38699-6.096582-6.548181-12.870562-9.483572-19.870342-2.935391-6.999779-5.870783-13.999559-8.580375-20.773539-2.709592-6.77398-5.193385-12.870562-7.451378-18.515546-2.257993-5.644983-4.064388-9.935171-5.644984-13.322161-2.483793-4.967585-6.548181-7.677178-12.193164-8.354575-5.644983-0.677398-11.289967 0.225799-16.709151 2.483793-5.419184 2.257993-9.935171 5.870783-13.322161 10.838368-3.612789 4.967585-4.064388 10.38677-1.580595 16.257552 2.257993 6.096582 4.515987 13.096362 7.451378 20.773539 2.709592 7.677178 5.644983 15.580154 8.806174 23.483132 3.161191 8.128776 6.096582 15.805954 8.806174 23.483131 2.709592 7.677178 5.193385 14.451158 7.451379 19.870341 4.515987 11.741566 11.741566 20.54774 20.999338 26.418523 9.483572 5.870783 19.192944 9.031974 29.579713 9.257773 10.38677 0.225799 20.096141-2.032194 29.579714-6.99978 9.483572-4.967585 16.257552-12.418964 20.547739-22.128335 3.38699-8.128776 6.77398-16.483352 10.38677-25.289526 3.612789-8.806174 6.999779-17.386549 10.16097-25.741124s6.322381-16.257552 9.031974-24.160529c2.709592-7.677178 5.193385-14.451158 6.999779-19.870342 1.806395-6.096582 0.903197-11.741566-2.483792-16.934951-4.064388-4.741786-8.580375-8.354576-14.451158-10.612568z" fill="#C9A063" p-id="17849"></path><path d="M961.679383 385.213671L641.72172 65.256009H129.60882c-35.450496 0-63.901213 28.676516-63.901213 63.901213v768.169349c0 35.450496 28.676516 63.901213 63.901213 63.901213h768.16935c35.450496 0 63.901213-28.676516 63.901213-63.901213V385.213671z m-580.981698 453.856671c-9.031974 0-19.418743-0.225799-31.160309-0.903198-11.967365-0.677398-24.160529-1.354796-36.805292-2.483792-12.644763-1.128997-25.289526-2.257993-37.70849-3.61279-12.418964-1.354796-23.93473-2.935391-34.0957-4.290187-10.16097-1.580595-18.741345-3.161191-25.966924-4.515987-6.999779-1.580595-11.515766-3.161191-13.322161-4.515987-3.38699-2.483793-5.870783-10.16097-7.677177-22.805733-1.806395-12.870562-0.903197-29.128115 2.032194-49.224256 1.128997-7.677178 3.838589-13.999559 7.677177-18.967144s8.580375-9.257773 13.999559-12.644763c5.644983-3.612789 11.741566-6.322381 18.515546-8.580375 6.77398-2.257993 13.77376-4.290187 20.773539-6.322381 6.999779-2.032194 13.999559-4.064388 20.54774-6.548181 6.548181-2.257993 12.644763-5.193385 18.289746-8.580375 6.548181-4.064388 11.515766-7.902977 15.128556-11.741566 3.612789-3.838589 6.096582-7.677178 7.677178-11.289967 1.580595-3.612789 2.257993-7.451378 2.257993-11.515766 0-4.064388-0.225799-8.580375-0.451599-13.322161-0.677398-6.999779-3.161191-12.644763-7.451378-16.93495-4.290187-4.064388-9.031974-8.354576-14.451158-12.644763-2.483793-2.257993-4.741786-5.193385-6.77398-9.031974-2.032194-3.838589-3.838589-7.677178-5.419184-11.741565-1.580595-4.515987-3.161191-9.483572-4.515987-14.451158-2.257993-0.677398-4.290187-1.806395-6.54818-3.161191-1.806395-1.580595-3.838589-3.612789-6.096583-6.548181-2.257993-2.709592-4.064388-6.77398-5.644983-11.967364s-2.257993-9.935171-1.806395-14.225359c0.225799-4.290187 1.128997-8.128776 2.709592-11.515766 1.128997-3.38699 3.161191-6.548181 6.096582-9.709372 0-11.741566 0.677398-23.483131 1.806395-35.224696 1.128997-9.935171 3.38699-20.54774 6.548181-31.837707 3.161191-11.515766 7.902977-21.676736 14.451158-30.482911 6.096582-8.580375 12.870562-15.580154 19.870341-20.999338 6.999779-5.419184 14.451158-9.709372 22.128336-12.644763 7.677178-3.161191 15.354355-5.193385 22.805733-6.322382s14.902756-1.580595 21.902536-1.580595c9.031974 0 17.838148 0.903197 26.644322 2.935391 8.806174 2.032194 16.93495 4.741786 24.837927 8.128776 7.677178 3.38699 14.676957 7.225579 20.54774 11.515767 6.096582 4.290187 10.612569 8.580375 13.999559 12.870562 8.128776 9.935171 13.77376 20.773539 17.612348 32.515105 3.612789 11.967365 6.322381 23.257332 7.902977 34.0957 1.580595 12.418964 2.257993 24.837927 2.257993 37.48269 2.257993 1.580595 3.838589 3.612789 5.193385 6.096582 1.128997 2.257993 2.257993 4.967585 2.935391 8.354576 0.677398 3.38699 0.903197 7.451378 0.2258 12.418963-0.677398 6.77398-2.032194 12.193164-3.838589 16.031753-2.032194 3.838589-4.290187 6.77398-6.77398 9.031974-2.709592 2.483793-5.644983 4.064388-8.806174 5.193385-0.677398 1.806395-1.128997 3.838589-1.806395 6.096582l-2.257993 6.548181c-0.677398 2.257993-1.354796 4.515987-2.257994 6.999779-15.805954 6.548181-30.257111 15.128556-43.353473 25.966924-13.096362 10.838368-24.386329 23.031533-34.0957 37.031092-9.483572 13.77376-16.93495 29.128115-22.128335 45.611466-5.193385 16.483352-7.902977 33.869901-7.902977 51.933848 0 16.031753 2.032194 31.386108 6.322382 46.063065 4.064388 14.676957 9.935171 28.450717 17.386549 41.321279h-11.967365zM677.398015 808.587431c-7.677178 17.838148-18.063947 33.192503-31.160308 46.514664-13.096362 13.322161-28.450717 23.708931-46.288865 31.160309-17.838148 7.451378-36.579493 11.289967-56.675634 11.289966-20.32194 0-39.289085-3.838589-57.127232-11.289966-17.838148-7.451378-33.192503-18.063947-46.288865-31.160309-13.096362-13.322161-23.483131-28.676516-31.160308-46.514664-7.677178-17.838148-11.515766-36.579493-11.515767-56.675634 0-20.096141 3.838589-38.837486 11.515767-56.675634 7.677178-17.838148 18.063947-33.192503 31.160308-46.514664 13.096362-13.322161 28.450717-23.708931 46.288865-31.386108 17.838148-7.677178 36.805292-11.515766 57.127232-11.515766 20.096141 0 38.837486 3.838589 56.675634 11.515766 17.838148 7.677178 33.192503 18.289746 46.288865 31.386108 13.096362 13.322161 23.483131 28.676516 31.160308 46.514664 7.677178 17.838148 11.515766 36.579493 11.515767 56.675634 0 20.096141-3.838589 39.063286-11.515767 56.675634z m28.224918-423.37376c-35.450496 0-63.901213-28.676516-63.901213-63.901212V84.448953l300.764719 300.764718H705.622933z" fill="#C9A063" p-id="17850"></path></svg>