<?xml version="1.0" standalone="no"?><!DOCTYPE svg PUBLIC "-//W3C//DTD SVG 1.1//EN" "http://www.w3.org/Graphics/SVG/1.1/DTD/svg11.dtd"><svg t="1774366840390" class="icon" viewBox="0 0 1024 1024" version="1.1" xmlns="http://www.w3.org/2000/svg" p-id="55425" xmlns:xlink="http://www.w3.org/1999/xlink" width="200" height="200"><path d="M830.1056 114.1248v505.3696l-160.2304 102.3744-54.528 3.4816 141.2352-66.7136c2.7648 0 5.0944-2.304 5.0944-5.0944V119.3472c0-2.7648-2.3296-5.0688-5.0944-5.0688H278.912c-2.7648 0-5.0688 2.3296-5.0688 5.0688v534.3488c0 2.7648 2.3296 5.0944 5.0688 5.0944l137.7536 67.2768-62.9248-4.0448-148.1984-94.6944V114.1248c0-40.448 32.9216-73.3696 73.3696-73.3696h477.7984c40.4992 0 73.3952 32.9216 73.3952 73.3696z m0 0" fill="#FF7D00" p-id="55426"></path><path d="M895.2064 349.4912c-16.384-14.7968-35.0976-25.5232-54.8096-37.4016-0.9984-0.5888-10.4448-5.0944-10.4448-6.2464v80.768c0 0.8704 11.7504 7.2448 13.056 8.3968 4.6336 3.7632 8.8576 8.1152 12.6208 12.7744 7.68 9.7024 13.184 21.0432 16.0768 32.9216 7.7056 31.8976-2.4576 74.24-32.2048 92.0832l-9.4208 5.6576-68.3008 41.0368-247.3728 159.9488c-0.5888 0.2816-1.152 0.5888-1.8944 0.5888h-0.7168c-0.8704 0-1.7408-0.2816-2.6112-0.7424L308.0704 608.768l-34.2272-22.1952-32.9216-19.584-35.2256-21.1712-21.4528-12.9024c-25.088-15.0784-37.2736-50.176-34.816-78.1824 3.3536-36.8384 26.6752-57.7024 56.2688-75.392v-80.6144l-57.1392 34.2272c-38.272 22.912-67.4304 73.9584-67.8656 118.6048v437.3504c0 47.5648 35.5328 87.0144 81.4848 93.1072 4.224 0.5888 8.4224 0.8704 12.6208 0.8704h673.8688c24.9344 0 47.7184-9.728 64.5376-25.6768 12.3136-11.5968 21.4528-26.3936 26.24-43.2128 2.304-7.9872 3.4816-16.384 3.4816-25.216v-436.48c0-30.592-12.032-60.3136-30.464-84.4032-5.3504-6.6816-11.136-12.7488-17.2544-18.4064zM149.8624 890.0864V601.9328c0-1.8944 1.024-3.4816 2.6112-4.352 0.7424-0.4096 1.6128-0.5888 2.4832-0.5888 0.9984 0 1.8944 0.2816 2.7648 0.8704l63.0784 40.32 273.3312 174.592c2.0224 1.3056 4.224 2.304 6.3744 3.1744 3.6352 1.3056 7.3984 2.0224 11.3152 2.0224 6.2464 0 12.3136-1.7408 17.6896-5.2224l49.4336-31.616 33.664-21.4528 253.3376-161.8432c0.8704-0.5888 1.7408-0.8704 2.7648-0.8704 0.8704 0 1.7408 0.2816 2.4832 0.5888 1.6128 0.8704 2.6112 2.6112 2.6112 4.5056v288.128c0 14.336-11.1616 26.112-24.9344 26.112h-674.048c-13.7984-0.128-24.96-11.8784-24.96-26.2144z m0 0" fill="#FF7D00" p-id="55427"></path><path d="M521.9584 615.296c-16.9728 0-30.7456-13.7728-30.7456-30.7456v-49.8944h-90.0352c-16.9472 0-30.7456-13.7728-30.7456-30.7456 0-16.9472 13.7728-30.7456 30.7456-30.7456h90.0352v-19.1488h-90.0352c-16.9472 0-30.7456-13.7728-30.7456-30.7456s13.7728-30.7456 30.7456-30.7456h69.0176l-63.0784-114.4064c-3.9168-7.2448-4.7872-15.6672-2.4576-23.4752 2.3296-7.8336 7.5264-14.3616 14.7968-18.2784 4.5056-2.4832 9.5744-3.7632 14.6432-3.7632 11.3152 0 21.6064 6.2464 27.1104 16.0768l60.9024 110.336 62.208-111.2064c5.376-9.856 15.6672-15.9488 26.9568-15.9488 5.0944 0 10.1632 1.3056 14.6432 3.7632 14.9248 8.1152 20.4544 26.8288 12.3136 41.6256l-64.3584 115.0976h68.864c16.9728 0 30.7456 13.7728 30.7456 30.7456s-13.7728 30.7456-30.7456 30.7456H552.704v19.1488h90.0352c16.9728 0 30.7456 13.7728 30.7456 30.7456 0 16.9472-13.7728 30.72-30.7456 30.72H552.704v49.8944c0 17.024-13.7472 30.9504-30.7456 30.9504z m0 0" fill="#FF7D00" p-id="55428"></path></svg>