<?xml version="1.0" standalone="no"?><!DOCTYPE svg PUBLIC "-//W3C//DTD SVG 1.1//EN" "http://www.w3.org/Graphics/SVG/1.1/DTD/svg11.dtd"><svg t="1774366861665" class="icon" viewBox="0 0 1024 1024" version="1.1" xmlns="http://www.w3.org/2000/svg" p-id="56411" xmlns:xlink="http://www.w3.org/1999/xlink" width="200" height="200"><path d="M847.888714 1024H176.111286A175.96884 175.96884 0 0 1 0.142446 848.03116l60.207364-671.967356A175.96884 175.96884 0 0 1 236.31865 0h551.3627a175.96884 175.96884 0 0 1 175.96884 175.96884l60.207364 672.06232a175.96884 175.96884 0 0 1-175.96884 175.96884zM471.735139 642.623389v203.698414l201.989056-254.21942H552.549754V388.403969L350.655662 642.623389h121.174441z m236.176203-499.132338a47.956969 47.956969 0 0 0-62.581471 26.400074l-4.463322 9.496429a143.775944 143.775944 0 0 1-262.101456-10.256143 48.051934 48.051934 0 1 0-88.696652 36.751182 239.689882 239.689882 0 0 0 444.148011 0 48.051934 48.051934 0 0 0-26.400074-62.581471z" fill="#F5B116" p-id="56412"></path></svg>