<?xml version="1.0" standalone="no"?><!DOCTYPE svg PUBLIC "-//W3C//DTD SVG 1.1//EN" "http://www.w3.org/Graphics/SVG/1.1/DTD/svg11.dtd"><svg t="1774366601352" class="icon" viewBox="0 0 1194 1024" version="1.1" xmlns="http://www.w3.org/2000/svg" p-id="38468" xmlns:xlink="http://www.w3.org/1999/xlink" width="233.203125" height="200"><path d="M1152.068267 394.513067c36.642133-24.32 39.253333-45.636267 39.253333-77.7728V123.904a112.708267 112.708267 0 0 0-112.5888-112.64H114.5344a112.708267 112.708267 0 0 0-112.571733 112.64v192.8192c0 32.136533 3.072 58.2656 41.472 78.9504 26.2144 12.3392 87.074133 47.8208 87.074133 113.9712 0 75.144533-44.6464 99.771733-83.421867 112.930133l-3.515733 1.6384C5.973333 647.7312 1.962667 686.7456 1.962667 702.429867v192.750933c0 62.1056 50.5344 112.6912 112.571733 112.6912h964.1984c62.0544 0 112.571733-50.5856 112.571733-112.6912V702.429867c0-41.642667-11.52-57.053867-40.891733-78.779734-66.269867-34.082133-87.6544-61.934933-87.6544-113.988266 0-52.224 19.8656-77.892267 89.309867-115.1488z m-346.402134 98.935466a32.3072 32.3072 0 0 1-32.2048 32.324267h-128.4096v31.829333h128.4096c17.749333 0 32.2048 14.506667 32.2048 32.324267v32.085333a32.426667 32.426667 0 0 1-32.2048 32.426667h-128.4096v96.170667a32.256 32.256 0 0 1-32.324266 32.256h-32.187734a32.256 32.256 0 0 1-32.324266-32.256v-96.170667h-128.426667a32.426667 32.426667 0 0 1-32.187733-32.426667v-32.085333c0-17.800533 14.455467-32.324267 32.187733-32.324267h128.426667v-31.829333h-128.426667c-17.732267 0-32.187733-14.506667-32.187733-32.324267v-32.085333c0-17.783467 14.455467-32.3072 32.187733-32.3072h84.48l-106.8032-114.602667a33.3824 33.3824 0 0 1 0-44.424533l20.445867-22.272c11.281067-12.219733 33.143467-12.458667 44.424533 0l134.178133 144.008533 134.178134-144.110933c11.178667-12.2368 33.262933-12.2368 44.424533 0.1024l20.6848 22.442667c11.264 12.526933 11.264 32.136533 0 44.544L689.322667 429.056h84.138666c17.749333 0 32.187733 14.506667 32.187734 32.324267v32.085333z" fill="#FF1339" p-id="38469"></path></svg>