<?xml version="1.0" standalone="no"?><!DOCTYPE svg PUBLIC "-//W3C//DTD SVG 1.1//EN" "http://www.w3.org/Graphics/SVG/1.1/DTD/svg11.dtd"><svg t="1774367073501" class="icon" viewBox="0 0 1024 1024" version="1.1" xmlns="http://www.w3.org/2000/svg" p-id="74154" xmlns:xlink="http://www.w3.org/1999/xlink" width="200" height="200"><path d="M775.70693 301.288221a240.712054 240.712054 0 0 0-144.074583-181.15971 29.349579 29.349579 0 1 0-22.751612 54.035078 182.012896 182.012896 0 0 1 109.150858 137.135341 185.198121 185.198121 0 0 1 2.730194 31.567862 29.349579 29.349579 0 1 0 58.64228 0 243.783522 243.783522 0 0 0-3.697137-41.578571z" fill="#FF7D50" p-id="74155"></path><path d="M903.51411 391.555242A391.555242 391.555242 0 1 0 325.168134 736.185283v165.859252A130.025462 130.025462 0 0 0 461.677806 1023.822537h100.22085a130.025462 130.025462 0 0 0 136.509672-121.778002v-165.859252a394.228556 394.228556 0 0 0 205.105782-344.630041z m-252.201619 294.519616c-0.682548 0.341274-1.251339 0.796306-1.877008 1.137581a33.786144 33.786144 0 0 0-3.128346 1.877008c-0.910064 0.625669-1.649492 1.365097-2.502678 2.047645s-1.592613 1.365097-2.33204 2.161403a32.705442 32.705442 0 0 0-2.104524 2.559556l-1.820129 2.502678c-0.56879 0.853185-1.023823 1.820129-1.535734 2.787072s-0.966944 1.933887-1.365096 2.95771-0.682548 2.047645-0.966944 3.071467-0.56879 1.990766-0.739427 3.071468a32.876079 32.876079 0 0 0-0.398154 3.697137v188.098952a65.012731 65.012731 0 0 1-70.245601 55.343296H462.075959a65.012731 65.012731 0 0 1-70.245602-55.343296v-185.994428-2.161403a33.046716 33.046716 0 0 0-0.398153-3.697137c0-1.080702-0.511911-2.047645-0.796306-3.071468s-0.56879-2.047645-0.966944-3.071467a32.307289 32.307289 0 0 0-1.365097-2.95771 26.562507 26.562507 0 0 0-3.412741-5.346629 32.648563 32.648563 0 0 0-2.104525-2.559556c-0.739427-0.796306-1.535734-1.421976-2.33204-2.161403s-1.592613-1.421976-2.502677-2.047645a32.25041 32.25041 0 0 0-3.071468-1.877008c-0.682548-0.341274-1.251339-0.853185-1.933887-1.137581a325.120535 325.120535 0 1 1 278.707247 0z" fill="#FF7D50" p-id="74156"></path><path d="M562.467447 767.639387H461.45029a29.349579 29.349579 0 1 0 0 58.64228h101.017157a29.349579 29.349579 0 1 0 0-58.64228z m0 94.532948H461.45029a29.349579 29.349579 0 1 0 0 58.642279h101.017157a29.349579 29.349579 0 1 0 0-58.642279z" fill="#FF7D50" p-id="74157"></path></svg>