<?xml version="1.0" standalone="no"?><!DOCTYPE svg PUBLIC "-//W3C//DTD SVG 1.1//EN" "http://www.w3.org/Graphics/SVG/1.1/DTD/svg11.dtd"><svg t="1774366910070" class="icon" viewBox="0 0 1024 1024" version="1.1" xmlns="http://www.w3.org/2000/svg" p-id="60327" xmlns:xlink="http://www.w3.org/1999/xlink" width="200" height="200"><path d="M512 12.190476c137.99619 0 262.972952 55.954286 353.426286 146.383238A498.249143 498.249143 0 0 1 1011.809524 512c0 137.99619-55.954286 262.972952-146.383238 353.426286A498.249143 498.249143 0 0 1 512 1011.809524a498.249143 498.249143 0 0 1-353.426286-146.383238A498.249143 498.249143 0 0 1 12.190476 512c0-137.99619 55.954286-262.972952 146.383238-353.426286A498.249143 498.249143 0 0 1 512 12.190476z m0 24.380953A473.941333 473.941333 0 0 0 175.811048 175.811048 473.941333 473.941333 0 0 0 36.571429 512c0 131.291429 53.223619 250.148571 139.239619 336.188952A473.941333 473.941333 0 0 0 512 987.428571c131.291429 0 250.148571-53.223619 336.188952-139.239619A473.941333 473.941333 0 0 0 987.428571 512c0-131.291429-53.223619-250.148571-139.239619-336.188952A473.941333 473.941333 0 0 0 512 36.571429z m191.366095 430.34819c2.438095 13.287619 8.777143 25.234286 17.846857 34.718476a70.509714 70.509714 0 0 0 46.32381 21.504c9.849905 0.121905 17.65181-0.828952 24.478476-2.681905l3.998476-1.219047 28.501334 48.493714a68.266667 68.266667 0 0 0-25.063619 52.540953c0 12.53181 3.462095 24.30781 9.508571 34.425904 3.267048 5.510095 7.314286 10.50819 11.971048 14.921143l3.608381 3.169524-28.501334 48.566857a70.460952 70.460952 0 0 0-23.722666-4.022857c-19.309714 0-36.790857 7.631238-49.444572 19.968a68.096 68.096 0 0 0-18.334476 31.207619l-1.170286 5.193143h-56.612571a67.85219 67.85219 0 0 0-17.846857-34.694095 70.509714 70.509714 0 0 0-46.32381-21.528381 88.161524 88.161524 0 0 0-24.478476 2.681904l-3.998476 1.219048-28.501334-48.542476a68.193524 68.193524 0 0 0 25.014858-52.565333 67.047619 67.047619 0 0 0-9.484191-34.450286c-3.267048-5.485714-7.314286-10.48381-11.946667-14.872381l-3.608381-3.169524 28.525715-48.518095c7.558095 2.681905 15.60381 4.047238 23.698285 4.022857 19.309714 0 36.766476-7.631238 49.420191-19.968 8.728381-8.484571 15.164952-19.21219 18.358857-31.207619l1.170286-5.193143h56.612571z m-326.802285-180.784762v60.294095h265.459809v-60.294095h78.262857a17.822476 17.822476 0 0 1 17.65181 14.921143l0.243809 2.901333v108.495238h-141.043809v42.349715c-7.338667 12.702476-11.629714 15.286857-16.042667 15.62819l-1.219048 0.048762-45.080381-22.528-83.846095 142.799238 37.790476 21.040762-37.766095 47.85981 49.371429 84.284952h-202.044953a17.822476 17.822476 0 0 1-17.67619-14.921143l-0.24381-2.876952V304.030476a17.822476 17.822476 0 0 1 14.921143-17.67619l2.876953-0.24381h78.384762z m298.422857 278.674286c-14.945524-0.024381-28.598857 5.680762-38.912 15.62819-9.752381 9.411048-16.603429 22.723048-18.432 40.545524 0.536381 14.945524 6.729143 28.379429 17.066666 38.326857 9.752381 9.411048 23.28381 15.750095 40.277334 16.969143 14.945524 0 28.598857-5.680762 38.936381-15.62819 9.752381-9.411048 16.579048-22.723048 18.432-40.545524a55.53981 55.53981 0 0 0-17.066667-38.351238c-9.752381-9.411048-23.28381-15.750095-40.277333-16.969143zM587.50781 256v35.913143h-156.40381V256h156.40381z" fill="#FB9F00" p-id="60328"></path></svg>