<?xml version="1.0" standalone="no"?><!DOCTYPE svg PUBLIC "-//W3C//DTD SVG 1.1//EN" "http://www.w3.org/Graphics/SVG/1.1/DTD/svg11.dtd"><svg t="1774366582422" class="icon" viewBox="0 0 1024 1024" version="1.1" xmlns="http://www.w3.org/2000/svg" p-id="37431" xmlns:xlink="http://www.w3.org/1999/xlink" width="200" height="200"><path d="M768 128a128 128 0 0 1 128 128v352a128 128 0 0 1-128 128H544V832h128a32 32 0 1 1 0 64h-320a32 32 0 1 1 0-64h128v-96H256a128 128 0 0 1-128-128V256a128 128 0 0 1 128-128h512z m0 64H256a64 64 0 0 0-63.552 56.512L192 256v352a64 64 0 0 0 56.512 63.552L256 672h512a64 64 0 0 0 63.552-56.512L832 608V256a64 64 0 0 0-56.512-63.552L768 192z m-41.28 105.28a32 32 0 0 1 3.904 40.768l-3.648 4.48L598.464 472.32a64 64 0 0 1-80.384 8.64l-6.656-4.992-56.704-48.384-111.36 112.896a32 32 0 0 1-49.28-40.448l3.712-4.48 111.36-112.896a64 64 0 0 1 80.448-8.704l6.656 4.928 56.704 48.384 128.512-129.856a32 32 0 0 1 45.248-0.192z" fill="#FF6505" p-id="37432"></path></svg>