<?xml version="1.0" standalone="no"?><!DOCTYPE svg PUBLIC "-//W3C//DTD SVG 1.1//EN" "http://www.w3.org/Graphics/SVG/1.1/DTD/svg11.dtd"><svg t="1774366750926" class="icon" viewBox="0 0 1024 1024" version="1.1" xmlns="http://www.w3.org/2000/svg" p-id="48879" xmlns:xlink="http://www.w3.org/1999/xlink" width="200" height="200"><path d="M854.857 992H169.143C93.403 992 32 930.596 32 854.857V169.143C32 93.403 93.404 32 169.143 32h685.714C930.596 32 992 93.404 992 169.143v685.714C992 930.596 930.596 992 854.857 992z" fill="#FFEBEB" p-id="48880"></path><path d="M832 792H192c-13.25 0-24-10.75-24-24s10.75-24 24-24h640c13.25 0 24 10.75 24 24s-10.75 24-24 24z" fill="#1F4CA4" p-id="48881"></path><path d="M360 768h-80V630c0-3.31 2.69-6 6-6h68c3.31 0 6 2.69 6 6v138zM552 768h-80V502c0-3.31 2.69-6 6-6h68c3.31 0 6 2.69 6 6v266zM744 768h-80V310c0-3.31 2.69-6 6-6h68c3.31 0 6 2.69 6 6v458z" fill="#FFFFFF" p-id="48882"></path><path d="M384 792H256c-13.25 0-24-10.75-24-24V592c0-22.06 17.94-40 40-40h96c22.06 0 40 17.94 40 40v176c0 13.25-10.75 24-24 24z m-104-48h80V600h-80v144zM576 792H448c-13.25 0-24-10.75-24-24V464c0-22.06 17.94-40 40-40h96c22.06 0 40 17.94 40 40v304c0 13.25-10.75 24-24 24z m-104-48h80V472h-80v272zM768 792H640c-13.25 0-24-10.75-24-24V272c0-22.06 17.94-40 40-40h96c22.06 0 40 17.94 40 40v496c0 13.25-10.75 24-24 24z m-104-48h80V280h-80v464z" fill="#1F4CA4" p-id="48883"></path><path d="M403.11 284h-192c-11.05 0-20-8.95-20-20s8.95-20 20-20h192c11.05 0 20 8.95 20 20s-8.96 20-20 20zM403.11 356h-192c-11.05 0-20-8.95-20-20s8.95-20 20-20h192c11.05 0 20 8.95 20 20s-8.96 20-20 20z" fill="#FFB9B3" p-id="48884"></path><path d="M307.11 452c-11.05 0-20-8.95-20-20V264c0-11.05 8.95-20 20-20s20 8.95 20 20v168c0 11.04-8.96 20-20 20z" fill="#FFB9B3" p-id="48885"></path><path d="M307.11 283.999c-5.12 0-10.24-1.95-14.14-5.86l-72-72c-7.81-7.81-7.81-20.47 0-28.28 7.81-7.81 20.47-7.81 28.28 0l72 72c7.81 7.81 7.81 20.47 0 28.28a19.92 19.92 0 0 1-14.14 5.86z" fill="#FFB9B3" p-id="48886"></path><path d="M307.11 283.999c-5.12 0-10.24-1.95-14.14-5.86-7.81-7.81-7.81-20.47 0-28.28l72-72c7.81-7.81 20.47-7.81 28.28 0 7.81 7.81 7.81 20.47 0 28.28l-72 72a19.92 19.92 0 0 1-14.14 5.86z" fill="#FFB9B3" p-id="48887"></path></svg>