<?xml version="1.0" standalone="no"?><!DOCTYPE svg PUBLIC "-//W3C//DTD SVG 1.1//EN" "http://www.w3.org/Graphics/SVG/1.1/DTD/svg11.dtd"><svg t="1774366798181" class="icon" viewBox="0 0 1024 1024" version="1.1" xmlns="http://www.w3.org/2000/svg" p-id="52173" xmlns:xlink="http://www.w3.org/1999/xlink" width="200" height="200"><path d="M461.29152 439.25504a75.40736 75.40736 0 0 0-19.469653-23.63392 117.445973 117.445973 0 0 0-27.19744-16.397653 520.02816 520.02816 0 0 0-30.47424-11.96032l2.430293-79.107414c4.573867 1.583787 8.506027 3.331413 11.810133 5.461334 3.249493 2.075307 6.034773 3.863893 8.35584 5.434026 3.577173 2.730667 7.427413 5.133653 11.564374 7.29088a29.764267 29.764267 0 0 0 13.981013 3.19488c8.88832 0 15.127893-2.21184 18.88256-6.621866 3.781973-4.369067 5.65248-10.07616 5.65248-16.9984 0-3.372373-1.447253-7.318187-4.355413-12.096854-2.99008-4.683093-7.345493-9.393493-13.06624-14.076586-5.7344-4.66944-12.957013-9.09312-21.613227-13.14816-8.656213-4.150613-18.80064-7.140693-30.22848-9.366187l0.98304-22.69184c0-5.789013-2.075307-10.15808-6.198613-13.216427-4.01408-3.058347-5.884587-4.532907-10.594987-4.532906-4.765013 0-11.83744 1.47456-15.865173 4.532906-4.096 3.058347-6.10304 7.427413-6.10304 13.216427l-0.518827 20.43904c-29.218133 1.488213-51.828053 9.95328-67.802453 25.204053-16.069973 15.332693-24.08448 35.075413-24.08448 59.337387 0 12.6976 2.49856 23.620267 7.604906 32.68608a77.0048 77.0048 0 0 0 20.179627 23.415467c8.328533 6.567253 17.667413 12.069547 27.989333 16.5888 10.24 4.54656 20.753067 8.779093 31.184214 12.724906l-2.484907 80.472747c-12.438187-3.659093-22.091093-8.64256-28.91776-15.03232a103.150933 103.150933 0 0 0-11.851093-8.369493 31.98976 31.98976 0 0 0-14.772907-4.34176c-17.012053 0-25.504427 7.113387-25.504427 21.367466 0 7.263573 2.49856 13.84448 7.604907 19.729067 5.065387 5.925547 11.55072 11.10016 19.41504 15.48288 7.86432 4.396373 16.520533 8.096427 25.995947 11.154773 9.516373 3.003733 18.568533 5.229227 27.006293 6.7584l-0.382293 20.02944c0 6.007467 2.020693 10.499413 6.116693 13.366614 4.109653 2.880853 8.506027 4.34176 13.243733 4.34176 4.75136 0 9.25696-1.460907 13.312-4.34176 4.109653-2.880853 6.116693-7.359147 6.116694-13.366614l0.518826-17.73568c27.784533-2.102613 49.547947-10.417493 65.344854-24.73984 15.714987-14.472533 23.565653-33.437013 23.565653-57.05728-0.013653-13.038933-2.4576-24.152747-7.3728-33.396053z m-115.397973-67.05152c-9.284267-4.191573-16.62976-8.942933-22.213974-14.29504-5.5296-5.297493-8.3968-12.233387-8.3968-20.72576 0-9.639253 2.99008-17.339733 8.901974-23.128747 5.89824-5.748053 13.80352-9.243307 23.59296-10.4448l-1.88416 68.594347z m57.125546 125.883733c-5.40672 5.229227-12.834133 8.492373-22.309546 9.99424l1.952426-67.25632c8.47872 4.273493 15.346347 9.202347 20.630187 14.772907 5.256533 5.625173 7.891627 12.342613 7.891627 20.19328 0 9.762133-2.757973 17.148587-8.164694 22.295893zM884.831573 235.014827L749.103787 110.3872A31.197867 31.197867 0 0 0 728.009387 102.4H160.27648C143.660373 102.4 130.184533 114.838187 130.184533 130.225493v763.549014C130.184533 909.14816 143.660373 921.6 160.27648 921.6h703.433387c16.62976 0 30.1056-12.45184 30.1056-27.825493V254.81216a26.624 26.624 0 0 0-8.983894-19.797333z m-668.398933 604.842666V184.142507h472.937813v92.501333c0 9.229653 8.055467 16.67072 18.036054 16.67072h100.174506v546.52928H216.43264v0.013653z" fill="#EFB93F" p-id="52174"></path><path d="M738.59072 583.584427c0 22.132053-19.2512 40.01792-43.035307 40.01792H508.02688c-23.7568 0-43.035307-17.885867-43.035307-40.01792 0-22.104747 19.278507-40.004267 43.035307-40.004267h187.528533c23.784107 0 43.035307 17.89952 43.035307 40.004267z m0 160.453973c0 22.145707-19.2512 40.031573-43.035307 40.031573H330.21952c-23.743147 0-43.008-17.885867-43.008-40.031573 0-22.050133 19.264853-40.004267 43.008-40.004267h365.32224c23.79776 0 43.04896 17.954133 43.04896 40.004267z m-6.935893-329.76896a40.05888 40.05888 0 0 1-40.004267 40.05888H601.770667c-22.091093 0-40.004267-17.954133-40.004267-40.05888s17.913173-39.990613 40.004267-39.990613h89.879893a39.990613 39.990613 0 0 1 40.004267 39.990613z" fill="#EFB93F" p-id="52175"></path></svg>