<?xml version="1.0" standalone="no"?><!DOCTYPE svg PUBLIC "-//W3C//DTD SVG 1.1//EN" "http://www.w3.org/Graphics/SVG/1.1/DTD/svg11.dtd"><svg t="1774366764910" class="icon" viewBox="0 0 1024 1024" version="1.1" xmlns="http://www.w3.org/2000/svg" p-id="49919" xmlns:xlink="http://www.w3.org/1999/xlink" width="200" height="200"><path d="M846.0288 360.8576H177.9712a74.1376 74.1376 0 0 0-74.1376 74.1376v389.12a74.3424 74.3424 0 0 0 74.1376 74.9568h668.0576a74.3424 74.3424 0 0 0 74.1376-74.3424v-389.12a73.9328 73.9328 0 0 0-74.1376-74.1376z" fill="#FFCE00" p-id="49920"></path><path d="M650.0352 677.0688a33.1776 33.1776 0 1 1 0 66.3552h-95.6416V798.72A36.864 36.864 0 0 1 512 835.7888 37.0688 37.0688 0 0 1 469.4016 798.72v-55.296h-95.4368a33.1776 33.1776 0 0 1 0-66.3552h95.4368v-20.48h-95.4368a33.1776 33.1776 0 0 1 0-66.3552h58.368L362.0864 491.52a39.1168 39.1168 0 0 1-9.0112-24.7808A40.96 40.96 0 0 1 430.08 441.9584l81.92 118.5792 81.92-118.5792a40.96 40.96 0 0 1 75.9808 24.576 39.1168 39.1168 0 0 1-7.9872 24.9856l-70.4512 98.7136h58.5728a33.3824 33.3824 0 0 1 0 66.56h-95.6416v20.48z" fill="#FFFFFF" p-id="49921"></path><path d="M790.3232 163.84a38.912 38.912 0 0 1-38.7072 38.912H272.384a38.912 38.912 0 0 1 0-77.824h479.232A38.912 38.912 0 0 1 790.3232 163.84zM842.9568 290.816a38.912 38.912 0 0 1-38.912 38.912H219.9552a38.912 38.912 0 1 1 0-77.824h584.0896a39.1168 39.1168 0 0 1 38.912 38.912z" fill="#FFCE00" p-id="49922"></path></svg>