<?xml version="1.0" standalone="no"?><!DOCTYPE svg PUBLIC "-//W3C//DTD SVG 1.1//EN" "http://www.w3.org/Graphics/SVG/1.1/DTD/svg11.dtd"><svg t="1774367058331" class="icon" viewBox="0 0 1024 1024" version="1.1" xmlns="http://www.w3.org/2000/svg" p-id="73174" xmlns:xlink="http://www.w3.org/1999/xlink" width="200" height="200"><path d="M619.466267 1024l-101.325337-58.338831-93.649176 53.733134h-7.676162c-11.770115 0-23.54023-2.558721-34.286856-7.164418-10.746627-4.605697-19.958021-10.746627-28.145927-18.934533s-14.328836-17.3993-18.934533-28.145927c-4.605697-10.746627-7.164418-22.516742-7.164418-34.286856V409.907046c0-11.770115 2.558721-23.54023 7.164418-34.286856 4.605697-10.746627 10.746627-19.958021 18.934533-28.145927s17.3993-14.328836 28.145927-18.934533c10.746627-4.605697 22.516742-7.164418 34.286856-7.164418h405.30135c11.770115 0 23.54023 2.558721 34.286856 7.164418 10.746627 4.605697 19.958021 10.746627 28.145927 18.934533s14.328836 17.3993 18.934533 28.145927c4.605697 10.746627 7.164418 22.516742 7.164418 34.286856v521.467267c0 11.770115-2.558721 23.54023-7.164418 34.286856-4.605697 10.746627-10.746627 19.958021-18.934533 28.145927s-17.3993 14.328836-28.145927 18.934533c-10.746627 4.605697-22.516742 7.164418-34.286856 7.164418H813.929035l-93.649175-53.733133L619.466267 1024z m101.325337-125.377311l107.978011 61.921039c1.535232-0.511744 3.582209-1.023488 5.117441-1.535232 3.582209-1.535232 6.652674-3.582209 9.723139-6.652674 2.558721-2.558721 5.117441-6.14093 6.652674-9.723138 1.535232-3.582209 2.558721-7.676162 2.55872-11.770115V409.907046c0-4.093953-0.511744-8.187906-2.55872-11.770114-1.535232-3.582209-3.582209-6.652674-6.652674-9.723139-2.558721-2.558721-6.14093-5.117441-9.723139-6.652674-3.582209-1.535232-7.676162-2.558721-11.770114-2.55872H416.815592c-4.093953 0-8.187906 0.511744-11.770115 2.55872-3.582209 1.535232-6.652674 3.582209-9.723138 6.652674-2.558721 2.558721-5.117441 6.14093-6.652674 9.723139-1.535232 3.582209-2.558721 7.676162-2.55872 11.770114v521.467267c0 4.093953 0.511744 8.187906 2.55872 11.770115 1.535232 3.582209 3.582209 6.652674 6.652674 9.723138 2.558721 2.558721 6.14093 5.117441 9.723138 6.652674 1.535232 0.511744 3.582209 1.023488 5.117442 1.535232l107.978011-61.921039L619.466267 957.473263l101.325337-58.850574z" fill="#FFE0E1" p-id="73175"></path><path d="M354.382809 347.474263h524.537731v626.886557H354.382809z" fill="#FFE0E1" p-id="73176"></path><path d="M517.629185 1024l-147.382308-84.949525-136.123938 78.296851h-11.258371c-17.3993 0-34.286857-3.582209-50.150925-10.234882-15.352324-6.652674-29.169415-15.864068-40.93953-27.634183-11.770115-11.770115-20.981509-25.587206-27.634183-40.93953-6.652674-15.864068-10.234883-32.751624-10.234883-50.150925V128.95952c0-17.3993 3.582209-34.286857 10.234883-50.150924 6.652674-15.352324 15.864068-29.169415 27.634183-40.939531 11.770115-11.770115 25.587206-20.981509 40.93953-27.634182 15.864068-6.652674 32.751624-10.234883 49.639181-10.234883h590.552723c17.3993 0 34.286857 3.582209 50.150925 10.234883 15.352324 6.652674 29.169415 15.864068 40.93953 27.634182 11.770115 11.770115 20.981509 25.587206 27.634183 40.939531 6.652674 15.864068 10.234883 32.751624 10.234882 50.150924v759.94003c0 17.3993-3.582209 34.286857-10.234882 50.150925-6.652674 15.352324-15.864068 29.169415-27.634183 40.93953-11.770115 11.770115-25.587206 20.981509-40.93953 27.634183-15.864068 6.652674-32.751624 10.234883-50.150925 10.234882h-11.258371L665.523238 939.562219 517.629185 1024z m147.382309-182.692654l157.105448 90.066967c2.558721-0.511744 5.117441-1.535232 7.676161-2.558721 5.117441-2.046977 9.723138-5.629185 13.817092-9.211394 4.093953-4.093953 7.164418-8.69965 9.211394-13.817092 2.046977-5.117441 3.582209-11.258371 3.582209-16.887556V128.95952c0-6.14093-1.023488-11.770115-3.582209-16.887556-2.046977-5.117441-5.629185-9.723138-9.211394-13.817091-4.093953-4.093953-8.69965-7.164418-13.817092-9.211395-5.629185-2.046977-11.258371-3.582209-16.887556-3.582209H222.352824c-6.14093 0-11.770115 1.023488-16.887557 3.582209-5.117441 2.046977-9.723138 5.629185-13.817091 9.211395-4.093953 4.093953-7.164418 8.69965-9.211394 13.817091-2.046977 5.117441-3.582209 11.258371-3.582209 16.887556v759.94003c0 6.14093 1.023488 11.770115 3.582209 16.887556 2.046977 5.117441 5.629185 9.723138 9.211394 13.817092 4.093953 4.093953 8.69965 7.164418 13.817091 9.211394 2.558721 1.023488 5.117441 2.046977 7.676162 2.558721l157.105448-90.066967 147.894053 84.949526 146.870564-84.949526z" fill="#EE6066" p-id="73177"></path><path d="M475.154423 311.14043H305.767116c-23.54023 0-42.474763-18.934533-42.474762-42.474763s18.934533-42.474763 42.474762-42.474762h169.387307c23.54023 0 42.474763 18.934533 42.474762 42.474762s-18.934533 42.474763-42.474762 42.474763z m211.862069 176.551724H305.767116c-23.54023 0-42.474763-18.934533-42.474762-42.474763 0-23.54023 18.934533-42.474763 42.474762-42.474762h381.249376c23.54023 0 42.474763 18.934533 42.474762 42.474762 0 23.54023-18.934533 42.474763-42.474762 42.474763z" fill="#EE6066" p-id="73178"></path></svg>