<?xml version="1.0" standalone="no"?><!DOCTYPE svg PUBLIC "-//W3C//DTD SVG 1.1//EN" "http://www.w3.org/Graphics/SVG/1.1/DTD/svg11.dtd"><svg t="1774366276926" class="icon" viewBox="0 0 1194 1024" version="1.1" xmlns="http://www.w3.org/2000/svg" p-id="19997" xmlns:xlink="http://www.w3.org/1999/xlink" width="233.203125" height="200"><path d="M535.893333 422.4a26.88 26.88 0 0 1-21.333333-10.666667l-62.293333-81.28a26.453333 26.453333 0 1 1 42.666666-32.213333l64 81.92a26.24 26.24 0 0 1-4.693333 37.12 27.52 27.52 0 0 1-16.426667 5.333333z m130.133334 0a27.52 27.52 0 0 1-16.426667-5.333333 26.24 26.24 0 0 1-4.693333-37.12l64-81.92a26.453333 26.453333 0 1 1 42.666666 32.213333l-64 81.493333a25.173333 25.173333 0 0 1-21.333333 10.666667z m0 0" fill="#FF943E" p-id="19998"></path><path d="M772.266667 460.586667H418.986667a26.453333 26.453333 0 0 1 0-52.906667H772.266667a26.453333 26.453333 0 1 1 0 52.906667z m0 160.853333H418.986667a26.453333 26.453333 0 0 1 0-52.906667H772.266667a26.453333 26.453333 0 1 1 0 52.906667z m0 0" fill="#FF943E" p-id="19999"></path><path d="M595.626667 798.506667a26.24 26.24 0 0 1-26.453334-26.453334V434.133333a26.453333 26.453333 0 0 1 52.906667 0v337.92a26.24 26.24 0 0 1-26.453333 26.453334z m0 0" fill="#FF943E" p-id="20000"></path><path d="M267.093333 824.96a26.026667 26.026667 0 0 1-20.053333-9.6A457.386667 457.386667 0 0 1 595.626667 61.653333 452.266667 452.266667 0 0 1 810.666667 115.2a26.453333 26.453333 0 0 1-25.386667 46.506667 397.653333 397.653333 0 0 0-189.866667-47.146667 405.333333 405.333333 0 0 0-308.266666 666.88 26.453333 26.453333 0 0 1-20.053334 42.666667z m328.96 151.253333a448 448 0 0 1-229.546666-61.866666 26.24 26.24 0 0 1-9.6-36.053334 26.666667 26.666667 0 0 1 36.053333-9.6 405.333333 405.333333 0 0 0 607.786667-350.08 405.333333 405.333333 0 0 0-94.08-259.626666 26.24 26.24 0 1 1 40.106666-33.92 457.173333 457.173333 0 0 1-350.72 750.933333z m0 0" fill="#FF943E" p-id="20001"></path><path d="M798.08 164.266667a27.093333 27.093333 0 0 1-25.386667-18.56L740.906667 42.666667a26.24 26.24 0 1 1 50.346666-15.36l31.786667 104.106666a26.453333 26.453333 0 0 1-17.493333 32.853334 31.146667 31.146667 0 0 1-7.466667 0zM410.88 1022.72a27.093333 27.093333 0 0 1-25.386667-18.56l-31.786666-104.106667a26.24 26.24 0 1 1 50.346666-15.36l31.786667 104.106667a26.453333 26.453333 0 0 1-17.493333 32.853333 31.146667 31.146667 0 0 1-7.466667 0z m0 0" fill="#FF943E" p-id="20002"></path></svg>