<?xml version="1.0" standalone="no"?><!DOCTYPE svg PUBLIC "-//W3C//DTD SVG 1.1//EN" "http://www.w3.org/Graphics/SVG/1.1/DTD/svg11.dtd"><svg t="1774366351873" class="icon" viewBox="0 0 1024 1024" version="1.1" xmlns="http://www.w3.org/2000/svg" p-id="24205" xmlns:xlink="http://www.w3.org/1999/xlink" width="200" height="200"><path d="M1004.307692 842.261346C1004.307692 938.858732 902.626245 1018.509194 777.219131 1018.509194L246.780889 1018.509194C121.373755 1018.509194 19.692308 938.858732 19.692308 842.261346L19.692308 733.801137 112.900313 733.801137 112.900313 842.261346C112.900313 893.10208 182.382631 933.774651 246.780889 933.774651L794.166036 933.774651C858.564273 933.774651 911.099707 893.10208 911.099707 842.261346L911.099707 174.553147C911.099707 123.712433 858.564273 83.039842 794.166036 83.039842L246.780889 83.039842C182.382631 83.039842 112.900313 123.712433 112.900313 174.553147L112.900313 284.708057 19.692308 284.708057 19.692308 176.247847C19.692308 79.650462 121.373755 0 246.780889 0L777.219131 0C902.626245 0 1004.307692 79.650462 1004.307692 176.247847L1004.307692 842.261346 1004.307692 842.261346ZM424.723417 659.234737 424.723417 543.995766 19.692308 543.995766 19.692308 454.177142 424.723417 454.177142 424.723417 338.938171 731.462479 499.933794 424.723417 659.234737 424.723417 659.234737Z" fill="#F49727" p-id="24206"></path></svg>