<?xml version="1.0" standalone="no"?><!DOCTYPE svg PUBLIC "-//W3C//DTD SVG 1.1//EN" "http://www.w3.org/Graphics/SVG/1.1/DTD/svg11.dtd"><svg t="1774366528565" class="icon" viewBox="0 0 1024 1024" version="1.1" xmlns="http://www.w3.org/2000/svg" p-id="34120" xmlns:xlink="http://www.w3.org/1999/xlink" width="200" height="200"><path d="M273.066667 0h477.866666C933.790476 0 1024 90.209524 1024 273.066667v477.866666C1024 933.790476 933.790476 1024 750.933333 1024H273.066667C90.209524 1024 0 933.790476 0 750.933333V273.066667C0 90.209524 90.209524 0 273.066667 0z" fill="#F2984E" p-id="34121"></path><path d="M707.047619 243.809524H292.571429c-26.819048 0-48.761905 21.942857-48.761905 48.761905v463.238095c0 26.819048 21.942857 48.761905 48.761905 48.761905h414.47619c26.819048 0 48.761905-21.942857 48.761905-48.761905V292.571429c0-26.819048-21.942857-48.761905-48.761905-48.761905zM390.095238 658.285714c-14.628571 0-24.380952-9.752381-24.380952-24.380952s9.752381-24.380952 24.380952-24.380952 24.380952 9.752381 24.380952 24.380952-9.752381 24.380952-24.380952 24.380952z m0-121.904762c-14.628571 0-24.380952-9.752381-24.380952-24.380952s9.752381-24.380952 24.380952-24.380952 24.380952 9.752381 24.380952 24.380952-9.752381 24.380952-24.380952 24.380952z m0-121.904762c-14.628571 0-24.380952-9.752381-24.380952-24.380952s9.752381-24.380952 24.380952-24.380952 24.380952 9.752381 24.380952 24.380952-9.752381 24.380952-24.380952 24.380952z m243.809524 243.809524h-170.666667c-14.628571 0-24.380952-9.752381-24.380952-24.380952s9.752381-24.380952 24.380952-24.380952h170.666667c14.628571 0 24.380952 9.752381 24.380952 24.380952s-9.752381 24.380952-24.380952 24.380952z m0-121.904762h-170.666667c-14.628571 0-24.380952-9.752381-24.380952-24.380952s9.752381-24.380952 24.380952-24.380952h170.666667c14.628571 0 24.380952 9.752381 24.380952 24.380952s-9.752381 24.380952-24.380952 24.380952z m0-121.904762h-170.666667c-14.628571 0-24.380952-9.752381-24.380952-24.380952s9.752381-24.380952 24.380952-24.380952h170.666667c14.628571 0 24.380952 9.752381 24.380952 24.380952s-9.752381 24.380952-24.380952 24.380952z" fill="#FFFFFF" p-id="34122"></path></svg>