<?xml version="1.0" standalone="no"?><!DOCTYPE svg PUBLIC "-//W3C//DTD SVG 1.1//EN" "http://www.w3.org/Graphics/SVG/1.1/DTD/svg11.dtd"><svg t="1774366559614" class="icon" viewBox="0 0 1024 1024" version="1.1" xmlns="http://www.w3.org/2000/svg" p-id="36363" xmlns:xlink="http://www.w3.org/1999/xlink" width="200" height="200"><path d="M92.672 113.664h727.04c31.232 0 56.32 25.6 55.808 56.832v796.672c0.512 31.232-24.576 56.832-55.808 56.832h-727.04c-31.232 0-56.32-25.6-55.808-56.832V170.496c-0.512-31.232 24.576-56.32 55.808-56.832z m111.616 540.16V824.32c0 15.872 12.8 28.672 28.672 28.672 14.848 0 27.136-12.288 27.136-27.136v-172.544c0-15.36-12.288-27.648-27.648-27.648-15.36 0-28.16 12.8-28.16 28.16zM428.032 711.68v112.128c0 15.872 12.8 29.184 29.184 29.184 14.848 0 26.624-11.776 26.624-26.624v-117.248c0-14.848-11.776-26.624-26.624-26.624-15.872 0-29.184 13.312-29.184 29.184z m223.744-170.496v282.112c0 16.384 13.312 30.208 30.208 30.208 14.336 0 25.6-11.776 25.6-25.6v-289.28c0-14.848-11.776-26.624-26.624-26.624-15.872 0-29.184 13.312-29.184 29.184z m-183.808-25.6l239.616-144.384c12.8-7.68 16.896-24.064 9.216-36.864-8.192-13.824-26.624-18.432-40.448-10.24L475.648 445.44c-5.12 3.072-12.288 2.56-16.384-2.048L352.256 332.288c-5.632-5.632-14.336-6.656-20.992-2.048L196.608 420.864c-13.824 9.216-17.408 27.648-8.192 41.472 8.192 12.288 25.088 15.872 37.376 7.68l99.328-67.584c5.632-3.584 12.8-3.072 17.92 2.048l105.472 109.568c5.12 4.608 13.312 5.632 19.456 1.536z m491.52 394.24c-15.36 0-28.16-12.8-28.16-28.16v-768c0.512-31.232-24.576-56.832-55.808-56.832H175.104c-14.848 0-26.624-11.776-26.624-26.624C148.48 13.312 161.792 0 178.688 0H875.52c62.464 0.512 112.64 51.2 112.128 113.664v768.512c0 15.36-12.8 28.16-28.16 27.648z" fill="#f1723b" p-id="36364"></path></svg>