<?xml version="1.0" standalone="no"?><!DOCTYPE svg PUBLIC "-//W3C//DTD SVG 1.1//EN" "http://www.w3.org/Graphics/SVG/1.1/DTD/svg11.dtd"><svg t="1774366547524" class="icon" viewBox="0 0 1024 1024" version="1.1" xmlns="http://www.w3.org/2000/svg" p-id="36218" xmlns:xlink="http://www.w3.org/1999/xlink" width="200" height="200"><path d="M896 149.333333H554.666667V74.666667c0-17.066667-14.933333-32-32-32S490.666667 57.6 490.666667 74.666667V149.333333H128c-23.466667 0-42.666667 19.2-42.666667 42.666667v533.333333c0 23.466667 19.2 42.666667 42.666667 42.666667h362.666667v59.733333l-119.466667 106.666667c-12.8 10.666667-12.8 27.733333 0 38.4s32 10.666667 42.666667 0l108.8-96 108.8 96c12.8 10.666667 32 10.666667 42.666666 0 12.8-10.666667 12.8-27.733333 0-38.4l-119.466666-106.666667V768h341.333333c23.466667 0 42.666667-19.2 42.666667-42.666667V192c0-23.466667-19.2-42.666667-42.666667-42.666667z m-21.333333 533.333334c0 12.8-8.533333 21.333333-21.333334 21.333333H170.666667c-12.8 0-21.333333-8.533333-21.333334-21.333333V234.666667c0-12.8 8.533333-21.333333 21.333334-21.333334h682.666666c12.8 0 21.333333 8.533333 21.333334 21.333334v448z" fill="#FF5C72" p-id="36219"></path><path d="M256 509.866667l121.6-121.6c12.8-12.8 32-12.8 44.8 0s12.8 32 0 44.8L300.8 554.666667c-12.8 12.8-32 12.8-44.8 0-12.8-10.666667-12.8-32 0-44.8z" fill="#FFADB8" p-id="36220"></path><path d="M379.733333 388.266667c12.8-12.8 32-12.8 44.8 0l136.533334 136.533333c12.8 12.8 12.8 32 0 44.8s-32 12.8-44.8 0l-136.533334-136.533333c-10.666667-12.8-10.666667-32 0-44.8z" fill="#FFADB8" p-id="36221"></path><path d="M516.266667 524.8l181.333333-181.333333c12.8-12.8 32-12.8 44.8 0s12.8 32 0 44.8l-181.333333 181.333333c-12.8 12.8-32 12.8-44.8 0-12.8-10.666667-12.8-32 0-44.8z" fill="#FFADB8" p-id="36222"></path></svg>