<?xml version="1.0" standalone="no"?><!DOCTYPE svg PUBLIC "-//W3C//DTD SVG 1.1//EN" "http://www.w3.org/Graphics/SVG/1.1/DTD/svg11.dtd"><svg t="1774366478025" class="icon" viewBox="0 0 1024 1024" version="1.1" xmlns="http://www.w3.org/2000/svg" p-id="31210" xmlns:xlink="http://www.w3.org/1999/xlink" width="200" height="200"><path d="M870.044444 2.844444H153.955556C70.755556 2.844444 2.844444 71.111111 2.844444 154.311111v580.977778c0 83.2 67.911111 151.111111 151.111112 151.111111h716.088888c83.2 0 151.111111-67.911111 151.111112-151.111111V154.311111C1021.155556 71.111111 953.244444 2.844444 870.044444 2.844444zM281.244444 751.288889c0 19.555556-16 35.555556-35.555555 35.555555s-35.555556-16-35.555556-35.555555v-196.266667c0-19.555556 16-35.555556 35.555556-35.555555s35.555556 16 35.555555 35.555555v196.266667z m173.866667 0c0 19.555556-16 35.555556-35.555555 35.555555s-35.555556-16-35.555556-35.555555v-273.777778c0-19.555556 16-35.555556 35.555556-35.555555s35.555556 16 35.555555 35.555555v273.777778z m174.222222 0c0 19.555556-16 35.555556-35.555555 35.555555s-35.555556-16-35.555556-35.555555v-196.266667c0-19.555556 16-35.555556 35.555556-35.555555s35.555556 16 35.555555 35.555555v196.266667z m173.866667 0c0 19.555556-16 35.555556-35.555556 35.555555s-35.555556-16-35.555555-35.555555v-273.777778c0-19.555556 16-35.555556 35.555555-35.555555s35.555556 16 35.555556 35.555555v273.777778z m63.644444-442.311111c0 19.555556-16 35.555556-35.555555 35.555555s-35.555556-16-35.555556-35.555555V227.911111l-232.533333 176c-15.288889 11.733333-36.977778 8.888889-49.066667-6.044444l-86.044444-106.666667-234.666667 158.222222c-6.044444 4.266667-13.155556 6.044444-19.911111 6.044445-11.377778 0-22.755556-5.333333-29.511111-15.644445a35.52 35.52 0 0 1 9.6-49.422222l261.688889-176.355556c15.288889-10.311111 35.911111-7.111111 47.644444 7.111112L547.555556 326.4l206.577777-156.444444h-95.644444c-19.555556 0-35.555556-16-35.555556-35.555556s16-35.555556 35.555556-35.555556h172.444444c19.555556 0 35.555556 16 35.555556 35.555556v174.577778zM787.555556 950.044444h-547.555556c-19.555556 0-35.555556 16-35.555556 35.555556s16 35.555556 35.555556 35.555556h547.555556c19.555556 0 35.555556-16 35.555555-35.555556 0-19.911111-16-35.555556-35.555555-35.555556z" fill="#F0711A" p-id="31211"></path></svg>